<svg width="272" height="198" viewBox="0 0 272 198" fill="none" xmlns="http://www.w3.org/2000/svg">
<g filter="url(#glassEffect)">
<path d="M65.1273 14.4213L60.6817 14.4213C46.8998 14.4213 33.5637 19.7561 24.2288 29.091C16.2269 37.0929 11.7811 47.7628 11.5596 58.6544L11.5596 62.2115C11.5596 65.7687 14.2266 68.4357 17.7839 68.4358L21.7844 68.4358C35.5663 68.4358 48.9024 63.101 58.2373 53.7661C66.2392 45.7642 70.685 35.0943 70.9065 24.2027L70.9066 20.6456C71.3508 17.0892 68.6829 14.4214 65.1273 14.4213Z" fill="#3172FF"/>
<path d="M80.5343 14.4213L84.9799 14.4213C98.7618 14.4213 112.098 19.7561 121.433 29.091C129.435 37.0929 133.881 47.7628 134.102 58.6544L134.102 62.2115C134.102 65.7687 131.435 68.4357 127.878 68.4358L123.877 68.4358C110.095 68.4358 96.7592 63.101 87.4243 53.7661C79.4224 45.7642 74.9766 35.0943 74.7551 24.2027L74.7551 20.6456C74.3108 17.0892 76.9787 14.4214 80.5343 14.4213Z" fill="#60A5FA"/>
<path d="M80.5343 126.24L84.9799 126.24C98.7618 126.24 112.098 120.905 121.433 111.571C129.435 103.569 133.881 92.8988 134.102 82.0072L134.102 78.4501C134.102 74.8929 131.435 72.2259 127.878 72.2258L123.877 72.2258C110.095 72.2258 96.7592 77.5606 87.4243 86.8955C79.4224 94.8974 74.9766 105.567 74.7551 116.459L74.7551 120.016C74.3108 123.572 76.9787 126.24 80.5343 126.24Z" fill="#3172FF"/>
<path d="M65.1273 72.4213L60.6817 72.4213C46.8998 72.4213 33.5637 77.7561 24.2288 87.091C16.2269 95.0929 11.7811 105.763 11.5596 116.654L11.5596 120.212C11.5596 123.769 14.2266 126.436 17.7839 126.436L21.7844 126.436C35.5663 126.436 48.9024 121.101 58.2373 111.766C66.2392 103.764 70.685 93.0943 70.9065 82.2027L70.9066 78.6456C71.3508 75.0892 68.6829 72.4214 65.1273 72.4213Z" fill="#60A5FA"/>
<path d="M65.1273 129.421L60.6817 129.421C46.8998 129.421 33.5637 134.756 24.2288 144.091C16.2269 152.093 11.7811 162.763 11.5596 173.654L11.5596 177.212C11.5596 180.769 14.2266 183.436 17.7839 183.436L21.7844 183.436C35.5663 183.436 48.9024 178.101 58.2373 168.766C66.2392 160.764 70.685 150.094 70.9065 139.203L70.9066 135.646C71.3508 132.089 68.6829 129.421 65.1273 129.421Z" fill="#3172FF"/>
<path d="M191.127 14.4213L186.682 14.4213C172.9 14.4213 159.564 19.7561 150.229 29.091C142.227 37.0929 137.781 47.7628 137.56 58.6544L137.56 62.2115C137.56 65.7687 140.227 68.4357 143.784 68.4358L147.784 68.4358C161.566 68.4358 174.902 63.101 184.237 53.7661C192.239 45.7642 196.685 35.0943 196.907 24.2027L196.907 20.6456C197.351 17.0892 194.683 14.4214 191.127 14.4213Z" fill="#60A5FA"/>
<path d="M206.534 14.4213L210.98 14.4213C224.762 14.4213 238.098 19.7561 247.433 29.091C255.435 37.0929 259.881 47.7628 260.102 58.6544L260.102 62.2115C260.102 65.7687 257.435 68.4357 253.878 68.4358L249.877 68.4358C236.095 68.4358 222.759 63.101 213.424 53.7661C205.422 45.7642 200.977 35.0943 200.755 24.2027L200.755 20.6456C200.311 17.0892 202.979 14.4214 206.534 14.4213Z" fill="#3172FF"/>
<path d="M206.534 183.24L210.98 183.24C224.762 183.24 238.098 177.905 247.433 168.571C255.435 160.569 259.881 149.899 260.102 139.007L260.102 135.45C260.102 131.893 257.435 129.226 253.878 129.226L249.877 129.226C236.095 129.226 222.759 134.561 213.424 143.895C205.422 151.897 200.977 162.567 200.755 173.459L200.755 177.016C200.311 180.572 202.979 183.24 206.534 183.24Z" fill="#60A5FA"/>
<path d="M143.534 129.421L147.98 129.421C161.762 129.421 175.098 134.756 184.433 144.091C192.435 152.093 196.881 162.763 197.102 173.654L197.102 177.212C197.102 180.769 194.435 183.436 190.878 183.436L186.877 183.436C173.095 183.436 159.759 178.101 150.424 168.766C142.422 160.764 137.977 150.094 137.755 139.203L137.755 135.646C137.311 132.089 139.979 129.421 143.534 129.421Z" fill="#3172FF"/>
</g>
<defs>
	<filter id="glassEffect" x="0" y="0" width="272" height="198" filterUnits="userSpaceOnUse">
		<feGaussianBlur stdDeviation="6" result="blur" />
		<feColorMatrix in="blur" type="matrix" values="0.8 0 0 0 0  0 0.8 0 0 0  0 0 0.8 0 0  0 0 0 1 0" />
		<feBlend in2="SourceGraphic" mode="lighten" />
	</filter>
</defs>
</svg>
